<?xml version="1.0" encoding="UTF-8" standalone="no"?>
<!-- Uploaded to: SVG Repo, www.svgrepo.com, Generator: SVG Repo Mixer Tools -->

<svg
   width="800px"
   height="800px"
   viewBox="0 0 36 36"
   aria-hidden="true"
   role="img"
   class="iconify iconify--twemoji"
   preserveAspectRatio="xMidYMid meet"
   version="1.1"
   id="svg8"
   sodipodi:docname="bolt.svg"
   inkscape:version="1.3.2 (091e20e, 2023-11-25, custom)"
   xmlns:inkscape="http://www.inkscape.org/namespaces/inkscape"
   xmlns:sodipodi="http://sodipodi.sourceforge.net/DTD/sodipodi-0.dtd"
   xmlns:xlink="http://www.w3.org/1999/xlink"
   xmlns="http://www.w3.org/2000/svg"
   xmlns:svg="http://www.w3.org/2000/svg">
  <defs
     id="defs8">
    <inkscape:path-effect
       effect="fillet_chamfer"
       id="path-effect45"
       is_visible="true"
       lpeversion="1"
       nodesatellites_param="F,0,0,1,0,0,0,1 @ F,0,0,1,0,0,0,1 @ F,0,0,1,0,0,0,1 @ F,0,0,1,0,0,0,1 @ F,0,0,1,0,0,0,1 @ F,0,0,1,0,0,0,1 @ F,0,0,1,0,0,0,1"
       radius="0"
       unit="px"
       method="auto"
       mode="F"
       chamfer_steps="1"
       flexible="false"
       use_knot_distance="true"
       apply_no_radius="true"
       apply_with_radius="true"
       only_selected="false"
       hide_knots="false" />
    <inkscape:path-effect
       effect="fillet_chamfer"
       id="path-effect44"
       is_visible="true"
       lpeversion="1"
       nodesatellites_param="F,0,0,1,0,0,0,1 @ F,0,0,1,0,0,0,1 @ F,0,0,1,0,0,0,1 @ F,0,0,1,0,0,0,1 @ F,0,0,1,0,0,0,1 | F,0,0,1,0,0,0,1 @ F,0,0,1,0,0,0,1 @ F,0,0,1,0,0,0,1 @ F,0,0,1,0,0,0,1 @ F,0,0,1,0,0,0,1 | F,0,0,1,0,0,0,1 @ F,0,0,1,0,0,0,1 @ F,0,0,1,0,0,0,1 @ F,0,0,1,0,0,0,1 @ F,0,0,1,0,0,0,1 | F,0,0,1,0,0,0,1 @ F,0,0,1,0,0,0,1 @ F,0,0,1,0,0,0,1 @ F,0,0,1,0,0,0,1 @ F,0,0,1,0,0,0,1 | F,0,0,1,0,0,0,1 @ F,0,0,1,0,0,0,1 @ F,0,0,1,0,0,0,1 @ F,0,0,1,0,0,0,1 @ F,0,0,1,0,0,0,1 | F,0,0,1,0,0,0,1 @ F,0,0,1,0,0,0,1 @ F,0,0,1,0,0,0,1 @ F,0,0,1,0,0,0,1 @ F,0,0,1,0,0,0,1 | F,0,0,1,0,0,0,1 @ F,0,0,1,0,0,0,1 @ F,0,0,1,0,0,0,1 @ F,0,0,1,0,0,0,1 @ F,0,0,1,0,0,0,1"
       radius="0"
       unit="px"
       method="auto"
       mode="F"
       chamfer_steps="1"
       flexible="false"
       use_knot_distance="true"
       apply_no_radius="true"
       apply_with_radius="true"
       only_selected="false"
       hide_knots="false" />
    <inkscape:path-effect
       effect="fillet_chamfer"
       id="path-effect43"
       is_visible="true"
       lpeversion="1"
       nodesatellites_param="F,0,0,1,0,0,0,1 @ F,0,0,1,0,0,0,1 @ F,0,0,1,0,0,0,1 @ F,0,0,1,0,0,0,1 @ F,0,0,1,0,0,0,1 @ F,0,0,1,0,0,0,1 @ F,0,0,1,0,0,0,1 @ F,0,0,1,0,0,0,1"
       radius="0"
       unit="px"
       method="auto"
       mode="F"
       chamfer_steps="1"
       flexible="false"
       use_knot_distance="true"
       apply_no_radius="true"
       apply_with_radius="true"
       only_selected="false"
       hide_knots="false" />
  </defs>
  <sodipodi:namedview
     id="namedview8"
     pagecolor="#ffffff"
     bordercolor="#000000"
     borderopacity="0.25"
     inkscape:showpageshadow="2"
     inkscape:pageopacity="0.0"
     inkscape:pagecheckerboard="0"
     inkscape:deskcolor="#d1d1d1"
     inkscape:zoom="1.02625"
     inkscape:cx="476.00487"
     inkscape:cy="400"
     inkscape:window-width="1920"
     inkscape:window-height="1017"
     inkscape:window-x="-8"
     inkscape:window-y="-8"
     inkscape:window-maximized="1"
     inkscape:current-layer="g43" />
  <a
     id="a43"
     xlink:href="Schraube">
    <g
       id="g43">
      <path
         fill="#8899a6"
         d="m 22.390606,33.969794 -0.04019,-33.46468039 -5.882846,0.00776 0.03957,33.46534139 c 9.5e-5,0.08052 0.01469,0.794575 0.50147,1.307384 0.2972,0.313091 0.709208,0.478197 1.192257,0.476901 l 2.499617,-0.0033 c 0.67927,-0.0016 1.691052,-0.478063 1.690127,-1.789408 z"
         id="path1"
         sodipodi:nodetypes="cccssccc"
         style="stroke-width:0.9082" />
      <path
         d="M 16.418986,35.621052 C 15.975858,35.15333 16.086853,34.37528 16.637427,34.08983 l 5.098242,-2.648781 c 1.081776,-0.580842 1.927564,1.172973 0.830926,1.723001 l -5.098241,2.64878 c -0.356244,0.184745 -0.777298,0.09515 -1.049368,-0.191778 z m -0.04821,-4.063582 c -0.443127,-0.467721 -0.332132,-1.245771 0.218443,-1.531222 l 5.09824,-2.648781 c 1.081782,-0.580862 1.927583,1.17298 0.830928,1.723001 l -5.098241,2.64878 c -0.356245,0.184745 -0.777299,0.09515 -1.04937,-0.191778 z m -0.04821,-4.063581 c -0.443128,-0.467722 -0.332134,-1.245771 0.218441,-1.531222 l 5.098241,-2.64878 c 1.081782,-0.580863 1.927583,1.172979 0.830927,1.722999 l -5.098241,2.648781 c -0.356243,0.184744 -0.777298,0.09515 -1.049368,-0.191778 z m -0.04821,-4.063583 c -0.443129,-0.46772 -0.332133,-1.24577 0.21844,-1.531221 l 5.098242,-2.648781 c 1.067986,-0.535658 1.884441,1.157334 0.830927,1.723001 l -5.098241,2.648781 c -0.356244,0.184744 -0.777298,0.09515 -1.049368,-0.19178 z m -0.08034,-6.772634 C 15.750888,16.18995 15.861883,15.4119 16.412458,15.12645 l 5.09824,-2.648781 c 1.0818,-0.580921 1.92764,1.173 0.830927,1.722999 l -5.098242,2.648781 c -0.356242,0.184745 -0.777297,0.09515 -1.049367,-0.191777 z m -0.04821,-4.063583 c -0.443129,-0.46772 -0.332134,-1.24577 0.218439,-1.531221 l 5.098241,-2.6487808 c 1.0818,-0.580922 1.927639,1.173001 0.830927,1.7229988 l -5.09824,2.648781 c -0.356244,0.184745 -0.777297,0.09515 -1.049367,-0.191778 z m -0.04821,-4.0635808 c -0.443123,-0.467721 -0.332128,-1.245771 0.218446,-1.531222 l 5.098247,-2.648781 c 1.081779,-0.5808497 1.927571,1.1729758 0.830927,1.723 l -5.098241,2.648781 c -0.356244,0.184746 -0.777298,0.09515 -1.049368,-0.191778 z"
         fill="#66757f"
         id="path2"
         style="stroke-width:0.931949"
         sodipodi:nodetypes="cccccccccccccccccccccccccccccccccccccccccc" />
      <path
         fill="#ccd6dd"
         d="m 11.721425,1.6811947 c 0,0 -8.78e-4,-1.31992429 1.248931,-1.32085089 l 12.498086,-0.00927 c 0,0 1.249809,-9.267e-4 1.250686,1.31899749 l 0.0027,3.9597726 c 0,0 8.77e-4,1.3199243 -1.248931,1.3208513 -4.166029,0.0031 -8.332059,0.0062 -12.498087,0.0093 0,0 -1.249809,9.26e-4 -1.250686,-1.3189979 z"
         id="path6"
         sodipodi:nodetypes="cscscscsc"
         style="stroke-width:0.9082" />
      <path
         fill="#8899a6"
         d="m 12.970356,0.36034381 c -1.249809,9.266e-4 -1.248931,1.32085089 -1.248931,1.32085089 l 0.0027,3.9597727 c 8.78e-4,1.3199238 1.250686,1.3189978 1.250686,1.3189978 l 2.499617,-0.0019 -0.0044,-6.59962069 z"
         id="path7"
         style="stroke-width:0.9082" />
      <path
         fill="#e1e8ed"
         d="m 25.47283,6.9506982 c 1.249809,-9.27e-4 1.248931,-1.3208511 1.248931,-1.3208511 l -0.0027,-3.9597727 C 26.718251,0.35015021 25.468442,0.35107691 25.468442,0.35107691 l -2.499617,0.00186 0.0044,6.59962129 z"
         id="path8"
         style="stroke-width:0.9082" />
      <path
         d="m 16.217747,20.165753 c -0.408098,-0.430785 -0.262281,-1.193464 0.286971,-1.500969 l 5.086264,-2.852844 c 1.080157,-0.623644 1.817159,1.036015 0.724041,1.630472 l -5.086264,2.852844 c -0.355391,0.199014 -0.760439,0.134755 -1.011012,-0.129503 z"
         fill="#66757f"
         id="path42"
         sodipodi:nodetypes="cccccc"
         style="stroke-width:0.904982" />
    </g>
  </a>
</svg>
